<mxfile host="app.diagrams.net" modified="2023-03-22T15:42:36.432Z" agent="5.0 (Windows NT 10.0; Win64; x64) AppleWebKit/537.36 (KHTML, like Gecko) Chrome/111.0.0.0 Safari/537.36" etag="iMfdEzBi9dHs_G21OyQ1" version="21.0.10" type="github">
  <diagram name="Page-1" id="c4acf3e9-155e-7222-9cf6-157b1a14988f">
    <mxGraphModel dx="2359" dy="1904" grid="1" gridSize="10" guides="1" tooltips="1" connect="1" arrows="1" fold="1" page="1" pageScale="1" pageWidth="850" pageHeight="1100" background="none" math="0" shadow="0">
      <root>
        <mxCell id="0" />
        <mxCell id="1" parent="0" />
        <mxCell id="6mkCIRbmMQfoTAYwDSCQ-61" value="" style="edgeStyle=orthogonalEdgeStyle;rounded=0;orthogonalLoop=1;jettySize=auto;html=1;endArrow=open;endFill=0;startArrow=diamondThin;startFill=0;endSize=12;startSize=12;" parent="1" source="17acba5748e5396b-20" target="17acba5748e5396b-33" edge="1">
          <mxGeometry relative="1" as="geometry" />
        </mxCell>
        <mxCell id="17acba5748e5396b-20" value="Board" style="swimlane;html=1;fontStyle=0;childLayout=stackLayout;horizontal=1;startSize=26;fillColor=none;horizontalStack=0;resizeParent=1;resizeLast=0;collapsible=1;marginBottom=0;swimlaneFillColor=#ffffff;rounded=0;shadow=0;comic=0;labelBackgroundColor=none;strokeWidth=1;fontFamily=Verdana;fontSize=10;align=center;" parent="1" vertex="1">
          <mxGeometry x="10" y="70" width="190" height="240" as="geometry" />
        </mxCell>
        <mxCell id="17acba5748e5396b-21" value="- image: string" style="text;html=1;strokeColor=none;fillColor=none;align=left;verticalAlign=top;spacingLeft=4;spacingRight=4;whiteSpace=wrap;overflow=hidden;rotatable=0;points=[[0,0.5],[1,0.5]];portConstraint=eastwest;fontSize=11;" parent="17acba5748e5396b-20" vertex="1">
          <mxGeometry y="26" width="190" height="20" as="geometry" />
        </mxCell>
        <mxCell id="XtxYPDcPfNEDLWMkmPID-65" value="- maxNumTiles: int" style="text;html=1;strokeColor=none;fillColor=none;align=left;verticalAlign=top;spacingLeft=4;spacingRight=4;whiteSpace=wrap;overflow=hidden;rotatable=0;points=[[0,0.5],[1,0.5]];portConstraint=eastwest;fontSize=11;" parent="17acba5748e5396b-20" vertex="1">
          <mxGeometry y="46" width="190" height="22" as="geometry" />
        </mxCell>
        <mxCell id="ETVMtuT10l9wvVC2BpGE-5" value="- numColumns: int = 9 {readOnly}" style="text;html=1;strokeColor=none;fillColor=none;align=left;verticalAlign=top;spacingLeft=4;spacingRight=4;whiteSpace=wrap;overflow=hidden;rotatable=0;points=[[0,0.5],[1,0.5]];portConstraint=eastwest;fontSize=11;" vertex="1" parent="17acba5748e5396b-20">
          <mxGeometry y="68" width="190" height="22" as="geometry" />
        </mxCell>
        <mxCell id="ETVMtuT10l9wvVC2BpGE-6" value="- numRows: int = 9 {readOnly}" style="text;html=1;strokeColor=none;fillColor=none;align=left;verticalAlign=top;spacingLeft=4;spacingRight=4;whiteSpace=wrap;overflow=hidden;rotatable=0;points=[[0,0.5],[1,0.5]];portConstraint=eastwest;fontSize=11;" vertex="1" parent="17acba5748e5396b-20">
          <mxGeometry y="90" width="190" height="24" as="geometry" />
        </mxCell>
        <mxCell id="XtxYPDcPfNEDLWMkmPID-40" value="" style="endArrow=none;html=1;rounded=0;exitX=0.002;exitY=-0.016;exitDx=0;exitDy=0;exitPerimeter=0;" parent="17acba5748e5396b-20" edge="1">
          <mxGeometry width="50" height="50" relative="1" as="geometry">
            <mxPoint y="114" as="sourcePoint" />
            <mxPoint x="190" y="114.20999999999998" as="targetPoint" />
          </mxGeometry>
        </mxCell>
        <mxCell id="ETVMtuT10l9wvVC2BpGE-2" value="+ addTiles(ArrayList&amp;lt;Tile&amp;gt;): void" style="text;html=1;strokeColor=none;fillColor=none;align=left;verticalAlign=top;spacingLeft=4;spacingRight=4;whiteSpace=wrap;overflow=hidden;rotatable=0;points=[[0,0.5],[1,0.5]];portConstraint=eastwest;fontSize=11;" vertex="1" parent="17acba5748e5396b-20">
          <mxGeometry y="114" width="190" height="24" as="geometry" />
        </mxCell>
        <mxCell id="ETVMtuT10l9wvVC2BpGE-4" value="+ needRefill(): int" style="text;html=1;strokeColor=none;fillColor=none;align=left;verticalAlign=top;spacingLeft=4;spacingRight=4;whiteSpace=wrap;overflow=hidden;rotatable=0;points=[[0,0.5],[1,0.5]];portConstraint=eastwest;fontSize=11;" vertex="1" parent="17acba5748e5396b-20">
          <mxGeometry y="138" width="190" height="26" as="geometry" />
        </mxCell>
        <mxCell id="ETVMtuT10l9wvVC2BpGE-3" value="+ removeTiles(Tile[], int[]): void" style="text;html=1;strokeColor=none;fillColor=none;align=left;verticalAlign=top;spacingLeft=4;spacingRight=4;whiteSpace=wrap;overflow=hidden;rotatable=0;points=[[0,0.5],[1,0.5]];portConstraint=eastwest;fontSize=11;" vertex="1" parent="17acba5748e5396b-20">
          <mxGeometry y="164" width="190" height="24" as="geometry" />
        </mxCell>
        <mxCell id="17acba5748e5396b-30" value="Tile" style="swimlane;html=1;fontStyle=0;childLayout=stackLayout;horizontal=1;startSize=26;fillColor=none;horizontalStack=0;resizeParent=1;resizeLast=0;collapsible=1;marginBottom=0;swimlaneFillColor=#ffffff;rounded=0;shadow=0;comic=0;labelBackgroundColor=none;strokeWidth=1;fontFamily=Verdana;fontSize=10;align=center;" parent="1" vertex="1">
          <mxGeometry x="310" y="70" width="240" height="153" as="geometry" />
        </mxCell>
        <mxCell id="17acba5748e5396b-33" value="- color: TileColor" style="text;html=1;strokeColor=none;fillColor=none;align=left;verticalAlign=top;spacingLeft=4;spacingRight=4;whiteSpace=wrap;overflow=hidden;rotatable=0;points=[[0,0.5],[1,0.5]];portConstraint=eastwest;" parent="17acba5748e5396b-30" vertex="1">
          <mxGeometry y="26" width="240" height="26" as="geometry" />
        </mxCell>
        <mxCell id="ETVMtuT10l9wvVC2BpGE-9" value="- imageId: int" style="text;html=1;strokeColor=none;fillColor=none;align=left;verticalAlign=top;spacingLeft=4;spacingRight=4;whiteSpace=wrap;overflow=hidden;rotatable=0;points=[[0,0.5],[1,0.5]];portConstraint=eastwest;" vertex="1" parent="17acba5748e5396b-30">
          <mxGeometry y="52" width="240" height="28" as="geometry" />
        </mxCell>
        <mxCell id="6mkCIRbmMQfoTAYwDSCQ-10" value="&lt;p style=&quot;margin:0px;margin-top:4px;text-align:center;&quot;&gt;&lt;i&gt;&amp;lt;&amp;lt;enumeration&amp;gt;&amp;gt;&lt;/i&gt;&lt;br&gt;&lt;b&gt;TileColor&lt;/b&gt;&lt;/p&gt;" style="verticalAlign=top;align=left;overflow=fill;fontSize=12;fontFamily=Helvetica;html=1;rounded=0;shadow=0;comic=0;labelBackgroundColor=none;strokeWidth=1" parent="1" vertex="1">
          <mxGeometry x="630" y="78" width="190" height="202" as="geometry" />
        </mxCell>
        <mxCell id="6mkCIRbmMQfoTAYwDSCQ-11" value="Green" style="text;html=1;strokeColor=none;fillColor=none;align=left;verticalAlign=top;spacingLeft=4;spacingRight=4;whiteSpace=wrap;overflow=hidden;rotatable=0;points=[[0,0.5],[1,0.5]];portConstraint=eastwest;" parent="1" vertex="1">
          <mxGeometry x="630" y="110" width="240" height="26" as="geometry" />
        </mxCell>
        <mxCell id="6mkCIRbmMQfoTAYwDSCQ-13" value="Yellow" style="text;html=1;strokeColor=none;fillColor=none;align=left;verticalAlign=top;spacingLeft=4;spacingRight=4;whiteSpace=wrap;overflow=hidden;rotatable=0;points=[[0,0.5],[1,0.5]];portConstraint=eastwest;" parent="1" vertex="1">
          <mxGeometry x="630" y="135" width="240" height="26" as="geometry" />
        </mxCell>
        <mxCell id="6mkCIRbmMQfoTAYwDSCQ-14" value="White" style="text;html=1;strokeColor=none;fillColor=none;align=left;verticalAlign=top;spacingLeft=4;spacingRight=4;whiteSpace=wrap;overflow=hidden;rotatable=0;points=[[0,0.5],[1,0.5]];portConstraint=eastwest;" parent="1" vertex="1">
          <mxGeometry x="630" y="160" width="240" height="26" as="geometry" />
        </mxCell>
        <mxCell id="6mkCIRbmMQfoTAYwDSCQ-15" value="Blue" style="text;html=1;strokeColor=none;fillColor=none;align=left;verticalAlign=top;spacingLeft=4;spacingRight=4;whiteSpace=wrap;overflow=hidden;rotatable=0;points=[[0,0.5],[1,0.5]];portConstraint=eastwest;" parent="1" vertex="1">
          <mxGeometry x="630" y="186" width="240" height="26" as="geometry" />
        </mxCell>
        <mxCell id="6mkCIRbmMQfoTAYwDSCQ-16" value="Cyan" style="text;html=1;strokeColor=none;fillColor=none;align=left;verticalAlign=top;spacingLeft=4;spacingRight=4;whiteSpace=wrap;overflow=hidden;rotatable=0;points=[[0,0.5],[1,0.5]];portConstraint=eastwest;" parent="1" vertex="1">
          <mxGeometry x="630" y="212" width="240" height="26" as="geometry" />
        </mxCell>
        <mxCell id="6mkCIRbmMQfoTAYwDSCQ-17" value="Purple" style="text;html=1;strokeColor=none;fillColor=none;align=left;verticalAlign=top;spacingLeft=4;spacingRight=4;whiteSpace=wrap;overflow=hidden;rotatable=0;points=[[0,0.5],[1,0.5]];portConstraint=eastwest;" parent="1" vertex="1">
          <mxGeometry x="630" y="238" width="240" height="26" as="geometry" />
        </mxCell>
        <mxCell id="6mkCIRbmMQfoTAYwDSCQ-18" value="GoalTile" style="swimlane;html=1;fontStyle=0;childLayout=stackLayout;horizontal=1;startSize=26;fillColor=none;horizontalStack=0;resizeParent=1;resizeLast=0;collapsible=1;marginBottom=0;swimlaneFillColor=#ffffff;rounded=0;shadow=0;comic=0;labelBackgroundColor=none;strokeWidth=1;fontFamily=Verdana;fontSize=10;align=center;" parent="1" vertex="1">
          <mxGeometry x="710" y="610" width="120" height="80" as="geometry" />
        </mxCell>
        <mxCell id="6mkCIRbmMQfoTAYwDSCQ-19" value="- value: int" style="text;html=1;strokeColor=none;fillColor=none;align=left;verticalAlign=top;spacingLeft=4;spacingRight=4;whiteSpace=wrap;overflow=hidden;rotatable=0;points=[[0,0.5],[1,0.5]];portConstraint=eastwest;" parent="6mkCIRbmMQfoTAYwDSCQ-18" vertex="1">
          <mxGeometry y="26" width="120" height="26" as="geometry" />
        </mxCell>
        <mxCell id="6mkCIRbmMQfoTAYwDSCQ-24" style="edgeStyle=orthogonalEdgeStyle;rounded=0;orthogonalLoop=1;jettySize=auto;html=1;entryX=-0.008;entryY=0.045;entryDx=0;entryDy=0;entryPerimeter=0;" parent="1" source="17acba5748e5396b-33" target="6mkCIRbmMQfoTAYwDSCQ-14" edge="1">
          <mxGeometry relative="1" as="geometry" />
        </mxCell>
        <mxCell id="6mkCIRbmMQfoTAYwDSCQ-37" style="edgeStyle=orthogonalEdgeStyle;rounded=0;orthogonalLoop=1;jettySize=auto;html=1;entryX=0.75;entryY=1;entryDx=0;entryDy=0;startArrow=diamondThin;startFill=0;endSize=12;startSize=12;endArrow=open;endFill=0;" parent="1" source="6mkCIRbmMQfoTAYwDSCQ-33" target="17acba5748e5396b-30" edge="1">
          <mxGeometry relative="1" as="geometry" />
        </mxCell>
        <mxCell id="6mkCIRbmMQfoTAYwDSCQ-33" value="Bookshelf" style="swimlane;html=1;fontStyle=0;childLayout=stackLayout;horizontal=1;startSize=26;fillColor=none;horizontalStack=0;resizeParent=1;resizeLast=0;collapsible=1;marginBottom=0;swimlaneFillColor=#ffffff;rounded=0;shadow=0;comic=0;labelBackgroundColor=none;strokeWidth=1;fontFamily=Verdana;fontSize=10;align=center;strokeColor=default;" parent="1" vertex="1">
          <mxGeometry x="610" y="300" width="200" height="260" as="geometry" />
        </mxCell>
        <mxCell id="6mkCIRbmMQfoTAYwDSCQ-39" value="- numColumns: int = 5 {readOnly}" style="text;html=1;strokeColor=none;fillColor=none;align=left;verticalAlign=top;spacingLeft=4;spacingRight=4;whiteSpace=wrap;overflow=hidden;rotatable=0;points=[[0,0.5],[1,0.5]];portConstraint=eastwest;" parent="6mkCIRbmMQfoTAYwDSCQ-33" vertex="1">
          <mxGeometry y="26" width="200" height="26" as="geometry" />
        </mxCell>
        <mxCell id="6mkCIRbmMQfoTAYwDSCQ-40" value="- numRows: int = 6 {readOnly}" style="text;html=1;strokeColor=none;fillColor=none;align=left;verticalAlign=top;spacingLeft=4;spacingRight=4;whiteSpace=wrap;overflow=hidden;rotatable=0;points=[[0,0.5],[1,0.5]];portConstraint=eastwest;" parent="6mkCIRbmMQfoTAYwDSCQ-33" vertex="1">
          <mxGeometry y="52" width="200" height="26" as="geometry" />
        </mxCell>
        <mxCell id="XtxYPDcPfNEDLWMkmPID-58" value="" style="endArrow=none;html=1;rounded=0;entryX=0.998;entryY=0.005;entryDx=0;entryDy=0;entryPerimeter=0;" parent="6mkCIRbmMQfoTAYwDSCQ-33" edge="1">
          <mxGeometry width="50" height="50" relative="1" as="geometry">
            <mxPoint y="78" as="sourcePoint" />
            <mxPoint x="200" y="78" as="targetPoint" />
          </mxGeometry>
        </mxCell>
        <mxCell id="6mkCIRbmMQfoTAYwDSCQ-72" value="+ isFull(): boolean" style="text;html=1;strokeColor=none;fillColor=none;align=left;verticalAlign=top;spacingLeft=4;spacingRight=4;whiteSpace=wrap;overflow=hidden;rotatable=0;points=[[0,0.5],[1,0.5]];portConstraint=eastwest;" parent="6mkCIRbmMQfoTAYwDSCQ-33" vertex="1">
          <mxGeometry y="78" width="200" height="26" as="geometry" />
        </mxCell>
        <mxCell id="6mkCIRbmMQfoTAYwDSCQ-83" value="+ addTile(Tile, int): void" style="text;html=1;strokeColor=none;fillColor=none;align=left;verticalAlign=top;spacingLeft=4;spacingRight=4;whiteSpace=wrap;overflow=hidden;rotatable=0;points=[[0,0.5],[1,0.5]];portConstraint=eastwest;" parent="6mkCIRbmMQfoTAYwDSCQ-33" vertex="1">
          <mxGeometry y="104" width="200" height="26" as="geometry" />
        </mxCell>
        <mxCell id="XtxYPDcPfNEDLWMkmPID-56" value="+ emptyCellsInColumn(int): int" style="text;html=1;strokeColor=none;fillColor=none;align=left;verticalAlign=top;spacingLeft=4;spacingRight=4;whiteSpace=wrap;overflow=hidden;rotatable=0;points=[[0,0.5],[1,0.5]];portConstraint=eastwest;" parent="6mkCIRbmMQfoTAYwDSCQ-33" vertex="1">
          <mxGeometry y="130" width="200" height="26" as="geometry" />
        </mxCell>
        <mxCell id="ETVMtuT10l9wvVC2BpGE-15" value="+ getSingleTile(int,int): Tile" style="text;html=1;strokeColor=none;fillColor=none;align=left;verticalAlign=top;spacingLeft=4;spacingRight=4;whiteSpace=wrap;overflow=hidden;rotatable=0;points=[[0,0.5],[1,0.5]];portConstraint=eastwest;" vertex="1" parent="6mkCIRbmMQfoTAYwDSCQ-33">
          <mxGeometry y="156" width="200" height="26" as="geometry" />
        </mxCell>
        <mxCell id="ETVMtuT10l9wvVC2BpGE-16" value="+ getNumElemColumn(int): int" style="text;html=1;strokeColor=none;fillColor=none;align=left;verticalAlign=top;spacingLeft=4;spacingRight=4;whiteSpace=wrap;overflow=hidden;rotatable=0;points=[[0,0.5],[1,0.5]];portConstraint=eastwest;" vertex="1" parent="6mkCIRbmMQfoTAYwDSCQ-33">
          <mxGeometry y="182" width="200" height="26" as="geometry" />
        </mxCell>
        <mxCell id="ETVMtuT10l9wvVC2BpGE-17" value="+ isRowFull(int): boolean" style="text;html=1;strokeColor=none;fillColor=none;align=left;verticalAlign=top;spacingLeft=4;spacingRight=4;whiteSpace=wrap;overflow=hidden;rotatable=0;points=[[0,0.5],[1,0.5]];portConstraint=eastwest;" vertex="1" parent="6mkCIRbmMQfoTAYwDSCQ-33">
          <mxGeometry y="208" width="200" height="26" as="geometry" />
        </mxCell>
        <mxCell id="ETVMtuT10l9wvVC2BpGE-18" value="+ isColumnFull(int): boolean" style="text;html=1;strokeColor=none;fillColor=none;align=left;verticalAlign=top;spacingLeft=4;spacingRight=4;whiteSpace=wrap;overflow=hidden;rotatable=0;points=[[0,0.5],[1,0.5]];portConstraint=eastwest;" vertex="1" parent="6mkCIRbmMQfoTAYwDSCQ-33">
          <mxGeometry y="234" width="200" height="26" as="geometry" />
        </mxCell>
        <mxCell id="6mkCIRbmMQfoTAYwDSCQ-38" value="0..N" style="edgeLabel;html=1;align=center;verticalAlign=middle;resizable=0;points=[];" parent="1" vertex="1" connectable="0">
          <mxGeometry x="454.9963034871321" y="259.9991846955833" as="geometry">
            <mxPoint x="59" y="-7" as="offset" />
          </mxGeometry>
        </mxCell>
        <mxCell id="6mkCIRbmMQfoTAYwDSCQ-48" style="edgeStyle=orthogonalEdgeStyle;rounded=0;orthogonalLoop=1;jettySize=auto;html=1;dashed=1;endArrow=block;endFill=0;entryX=1;entryY=0.5;entryDx=0;entryDy=0;" parent="1" source="6mkCIRbmMQfoTAYwDSCQ-43" target="ETVMtuT10l9wvVC2BpGE-49" edge="1">
          <mxGeometry relative="1" as="geometry">
            <mxPoint x="250" y="620" as="targetPoint" />
            <Array as="points">
              <mxPoint x="255" y="640" />
              <mxPoint x="255" y="639" />
            </Array>
          </mxGeometry>
        </mxCell>
        <mxCell id="6mkCIRbmMQfoTAYwDSCQ-57" style="edgeStyle=orthogonalEdgeStyle;rounded=0;orthogonalLoop=1;jettySize=auto;html=1;startArrow=classic;startFill=1;" parent="1" source="6mkCIRbmMQfoTAYwDSCQ-43" edge="1">
          <mxGeometry relative="1" as="geometry">
            <mxPoint x="710" y="640" as="targetPoint" />
          </mxGeometry>
        </mxCell>
        <mxCell id="XtxYPDcPfNEDLWMkmPID-54" style="edgeStyle=orthogonalEdgeStyle;rounded=0;orthogonalLoop=1;jettySize=auto;html=1;" parent="1" target="XtxYPDcPfNEDLWMkmPID-50" edge="1">
          <mxGeometry relative="1" as="geometry">
            <Array as="points">
              <mxPoint x="450" y="931" />
            </Array>
            <mxPoint x="450" y="720" as="sourcePoint" />
          </mxGeometry>
        </mxCell>
        <mxCell id="6mkCIRbmMQfoTAYwDSCQ-43" value="CommonGoal" style="swimlane;html=1;fontStyle=0;childLayout=stackLayout;horizontal=1;startSize=26;fillColor=none;horizontalStack=0;resizeParent=1;resizeLast=0;collapsible=1;marginBottom=0;swimlaneFillColor=#ffffff;rounded=0;shadow=0;comic=0;labelBackgroundColor=none;strokeWidth=1;fontFamily=Verdana;fontSize=10;align=center;" parent="1" vertex="1">
          <mxGeometry x="290" y="563.5" width="200" height="153" as="geometry" />
        </mxCell>
        <mxCell id="6mkCIRbmMQfoTAYwDSCQ-44" value="- patternRepetions: int" style="text;html=1;strokeColor=none;fillColor=none;align=left;verticalAlign=top;spacingLeft=4;spacingRight=4;whiteSpace=wrap;overflow=hidden;rotatable=0;points=[[0,0.5],[1,0.5]];portConstraint=eastwest;" parent="6mkCIRbmMQfoTAYwDSCQ-43" vertex="1">
          <mxGeometry y="26" width="200" height="26" as="geometry" />
        </mxCell>
        <mxCell id="XtxYPDcPfNEDLWMkmPID-49" value="- type: CheckType" style="text;html=1;strokeColor=none;fillColor=none;align=left;verticalAlign=top;spacingLeft=4;spacingRight=4;whiteSpace=wrap;overflow=hidden;rotatable=0;points=[[0,0.5],[1,0.5]];portConstraint=eastwest;" parent="6mkCIRbmMQfoTAYwDSCQ-43" vertex="1">
          <mxGeometry y="52" width="200" height="26" as="geometry" />
        </mxCell>
        <mxCell id="ETVMtuT10l9wvVC2BpGE-45" value="" style="endArrow=none;html=1;rounded=0;entryX=0.998;entryY=0.005;entryDx=0;entryDy=0;entryPerimeter=0;" edge="1" parent="6mkCIRbmMQfoTAYwDSCQ-43">
          <mxGeometry width="50" height="50" relative="1" as="geometry">
            <mxPoint y="78" as="sourcePoint" />
            <mxPoint x="200" y="78" as="targetPoint" />
          </mxGeometry>
        </mxCell>
        <mxCell id="6mkCIRbmMQfoTAYwDSCQ-59" style="edgeStyle=orthogonalEdgeStyle;rounded=0;orthogonalLoop=1;jettySize=auto;html=1;dashed=1;endArrow=block;endFill=0;entryX=0.5;entryY=0;entryDx=0;entryDy=0;" parent="1" source="6mkCIRbmMQfoTAYwDSCQ-51" edge="1" target="ETVMtuT10l9wvVC2BpGE-47">
          <mxGeometry relative="1" as="geometry">
            <mxPoint x="140" y="560" as="targetPoint" />
          </mxGeometry>
        </mxCell>
        <mxCell id="ETVMtuT10l9wvVC2BpGE-56" style="edgeStyle=orthogonalEdgeStyle;rounded=0;orthogonalLoop=1;jettySize=auto;html=1;entryX=0.25;entryY=1;entryDx=0;entryDy=0;startArrow=diamondThin;startFill=0;startSize=16;" edge="1" parent="1" source="6mkCIRbmMQfoTAYwDSCQ-51" target="17acba5748e5396b-30">
          <mxGeometry relative="1" as="geometry">
            <Array as="points">
              <mxPoint x="140" y="330" />
              <mxPoint x="370" y="330" />
            </Array>
          </mxGeometry>
        </mxCell>
        <mxCell id="6mkCIRbmMQfoTAYwDSCQ-51" value="PersonalGoal" style="swimlane;html=1;fontStyle=0;childLayout=stackLayout;horizontal=1;startSize=26;fillColor=none;horizontalStack=0;resizeParent=1;resizeLast=0;collapsible=1;marginBottom=0;swimlaneFillColor=#ffffff;rounded=0;shadow=0;comic=0;labelBackgroundColor=none;strokeWidth=1;fontFamily=Verdana;fontSize=10;align=center;" parent="1" vertex="1">
          <mxGeometry x="20" y="360" width="220" height="130" as="geometry" />
        </mxCell>
        <mxCell id="ETVMtuT10l9wvVC2BpGE-52" value="- numColumns: int = 5 {readOnly}" style="text;html=1;strokeColor=none;fillColor=none;align=left;verticalAlign=top;spacingLeft=4;spacingRight=4;whiteSpace=wrap;overflow=hidden;rotatable=0;points=[[0,0.5],[1,0.5]];portConstraint=eastwest;" vertex="1" parent="6mkCIRbmMQfoTAYwDSCQ-51">
          <mxGeometry y="26" width="220" height="26" as="geometry" />
        </mxCell>
        <mxCell id="ETVMtuT10l9wvVC2BpGE-53" value="- numRows: int = 6 {readOnly}" style="text;html=1;strokeColor=none;fillColor=none;align=left;verticalAlign=top;spacingLeft=4;spacingRight=4;whiteSpace=wrap;overflow=hidden;rotatable=0;points=[[0,0.5],[1,0.5]];portConstraint=eastwest;" vertex="1" parent="6mkCIRbmMQfoTAYwDSCQ-51">
          <mxGeometry y="52" width="220" height="26" as="geometry" />
        </mxCell>
        <mxCell id="ETVMtuT10l9wvVC2BpGE-10" value="" style="endArrow=none;html=1;rounded=0;entryX=1.001;entryY=1.046;entryDx=0;entryDy=0;entryPerimeter=0;" edge="1" parent="6mkCIRbmMQfoTAYwDSCQ-51" target="ETVMtuT10l9wvVC2BpGE-53">
          <mxGeometry width="50" height="50" relative="1" as="geometry">
            <mxPoint y="80" as="sourcePoint" />
            <mxPoint x="200" y="80" as="targetPoint" />
          </mxGeometry>
        </mxCell>
        <mxCell id="ETVMtuT10l9wvVC2BpGE-59" value="+ goalPattern(Bookshelf): int" style="text;html=1;strokeColor=none;fillColor=none;align=left;verticalAlign=top;spacingLeft=4;spacingRight=4;whiteSpace=wrap;overflow=hidden;rotatable=0;points=[[0,0.5],[1,0.5]];portConstraint=eastwest;" vertex="1" parent="6mkCIRbmMQfoTAYwDSCQ-51">
          <mxGeometry y="78" width="220" height="22" as="geometry" />
        </mxCell>
        <mxCell id="ETVMtuT10l9wvVC2BpGE-60" value="+ score(Bookshelf): int" style="text;html=1;strokeColor=none;fillColor=none;align=left;verticalAlign=top;spacingLeft=4;spacingRight=4;whiteSpace=wrap;overflow=hidden;rotatable=0;points=[[0,0.5],[1,0.5]];portConstraint=eastwest;" vertex="1" parent="6mkCIRbmMQfoTAYwDSCQ-51">
          <mxGeometry y="100" width="220" height="26" as="geometry" />
        </mxCell>
        <mxCell id="6mkCIRbmMQfoTAYwDSCQ-54" value="2..4" style="text;html=1;align=center;verticalAlign=middle;resizable=0;points=[];autosize=1;strokeColor=none;fillColor=none;" parent="1" vertex="1">
          <mxGeometry x="650" y="640" width="40" height="30" as="geometry" />
        </mxCell>
        <mxCell id="6mkCIRbmMQfoTAYwDSCQ-62" value="0..N" style="text;html=1;align=center;verticalAlign=middle;resizable=0;points=[];autosize=1;strokeColor=none;fillColor=none;" parent="1" vertex="1">
          <mxGeometry x="260" y="120" width="50" height="30" as="geometry" />
        </mxCell>
        <mxCell id="6mkCIRbmMQfoTAYwDSCQ-69" style="edgeStyle=orthogonalEdgeStyle;rounded=0;orthogonalLoop=1;jettySize=auto;html=1;entryX=1;entryY=0.5;entryDx=0;entryDy=0;startArrow=classic;startFill=1;" parent="1" source="6mkCIRbmMQfoTAYwDSCQ-64" target="6mkCIRbmMQfoTAYwDSCQ-18" edge="1">
          <mxGeometry relative="1" as="geometry">
            <mxPoint x="890" y="660" as="targetPoint" />
          </mxGeometry>
        </mxCell>
        <mxCell id="6mkCIRbmMQfoTAYwDSCQ-79" style="edgeStyle=orthogonalEdgeStyle;rounded=0;orthogonalLoop=1;jettySize=auto;html=1;targetPerimeterSpacing=0;sourcePerimeterSpacing=0;entryX=1.007;entryY=0.731;entryDx=0;entryDy=0;entryPerimeter=0;" parent="1" target="ETVMtuT10l9wvVC2BpGE-53" edge="1">
          <mxGeometry relative="1" as="geometry">
            <Array as="points">
              <mxPoint x="900" y="530" />
              <mxPoint x="900" y="570" />
              <mxPoint x="560" y="570" />
              <mxPoint x="560" y="460" />
              <mxPoint x="410" y="460" />
              <mxPoint x="410" y="430" />
              <mxPoint x="242" y="430" />
            </Array>
            <mxPoint x="920" y="530" as="sourcePoint" />
            <mxPoint x="260" y="430" as="targetPoint" />
          </mxGeometry>
        </mxCell>
        <mxCell id="6mkCIRbmMQfoTAYwDSCQ-64" value="Player" style="swimlane;html=1;fontStyle=0;childLayout=stackLayout;horizontal=1;startSize=26;fillColor=none;horizontalStack=0;resizeParent=1;resizeLast=0;collapsible=1;marginBottom=0;swimlaneFillColor=#ffffff;rounded=0;shadow=0;comic=0;labelBackgroundColor=none;strokeWidth=1;fontFamily=Verdana;fontSize=10;align=center;" parent="1" vertex="1">
          <mxGeometry x="920" y="390" width="240" height="186" as="geometry" />
        </mxCell>
        <mxCell id="6mkCIRbmMQfoTAYwDSCQ-65" value="- nickname: string" style="text;html=1;strokeColor=none;fillColor=none;align=left;verticalAlign=top;spacingLeft=4;spacingRight=4;whiteSpace=wrap;overflow=hidden;rotatable=0;points=[[0,0.5],[1,0.5]];portConstraint=eastwest;" parent="6mkCIRbmMQfoTAYwDSCQ-64" vertex="1">
          <mxGeometry y="26" width="240" height="26" as="geometry" />
        </mxCell>
        <mxCell id="XtxYPDcPfNEDLWMkmPID-10" value="- connected: boolean" style="text;html=1;strokeColor=none;fillColor=none;align=left;verticalAlign=top;spacingLeft=4;spacingRight=4;whiteSpace=wrap;overflow=hidden;rotatable=0;points=[[0,0.5],[1,0.5]];portConstraint=eastwest;" parent="6mkCIRbmMQfoTAYwDSCQ-64" vertex="1">
          <mxGeometry y="52" width="240" height="26" as="geometry" />
        </mxCell>
        <mxCell id="XtxYPDcPfNEDLWMkmPID-38" value="" style="endArrow=none;html=1;rounded=0;entryX=1.002;entryY=-0.016;entryDx=0;entryDy=0;entryPerimeter=0;exitX=0.002;exitY=-0.016;exitDx=0;exitDy=0;exitPerimeter=0;" parent="6mkCIRbmMQfoTAYwDSCQ-64" edge="1">
          <mxGeometry width="50" height="50" relative="1" as="geometry">
            <mxPoint x="-2.091660178393795e-13" y="78.00399999999985" as="sourcePoint" />
            <mxPoint x="240.00000000000003" y="78.00399999999985" as="targetPoint" />
          </mxGeometry>
        </mxCell>
        <mxCell id="ETVMtuT10l9wvVC2BpGE-29" value="+ score(): int" style="text;html=1;strokeColor=none;fillColor=none;align=left;verticalAlign=top;spacingLeft=4;spacingRight=4;whiteSpace=wrap;overflow=hidden;rotatable=0;points=[[0,0.5],[1,0.5]];portConstraint=eastwest;" vertex="1" parent="6mkCIRbmMQfoTAYwDSCQ-64">
          <mxGeometry y="78" width="240" height="26" as="geometry" />
        </mxCell>
        <mxCell id="ETVMtuT10l9wvVC2BpGE-32" value="+ selectColumn(int): int" style="text;html=1;strokeColor=none;fillColor=none;align=left;verticalAlign=top;spacingLeft=4;spacingRight=4;whiteSpace=wrap;overflow=hidden;rotatable=0;points=[[0,0.5],[1,0.5]];portConstraint=eastwest;" vertex="1" parent="6mkCIRbmMQfoTAYwDSCQ-64">
          <mxGeometry y="104" width="240" height="26" as="geometry" />
        </mxCell>
        <mxCell id="ETVMtuT10l9wvVC2BpGE-30" value="+ selectTiles(Board): ArrayList&amp;lt;Tile&amp;gt;" style="text;html=1;strokeColor=none;fillColor=none;align=left;verticalAlign=top;spacingLeft=4;spacingRight=4;whiteSpace=wrap;overflow=hidden;rotatable=0;points=[[0,0.5],[1,0.5]];portConstraint=eastwest;" vertex="1" parent="6mkCIRbmMQfoTAYwDSCQ-64">
          <mxGeometry y="130" width="240" height="26" as="geometry" />
        </mxCell>
        <mxCell id="ETVMtuT10l9wvVC2BpGE-31" value="? orderSelectedTiles(): ArrayList&amp;lt;Tile&amp;gt;" style="text;html=1;strokeColor=none;fillColor=none;align=left;verticalAlign=top;spacingLeft=4;spacingRight=4;whiteSpace=wrap;overflow=hidden;rotatable=0;points=[[0,0.5],[1,0.5]];portConstraint=eastwest;" vertex="1" parent="6mkCIRbmMQfoTAYwDSCQ-64">
          <mxGeometry y="156" width="240" height="30" as="geometry" />
        </mxCell>
        <mxCell id="6mkCIRbmMQfoTAYwDSCQ-70" value="0..3" style="text;html=1;align=center;verticalAlign=middle;resizable=0;points=[];autosize=1;strokeColor=none;fillColor=none;" parent="1" vertex="1">
          <mxGeometry x="840" y="610" width="40" height="30" as="geometry" />
        </mxCell>
        <mxCell id="6mkCIRbmMQfoTAYwDSCQ-74" value="1" style="text;html=1;align=center;verticalAlign=middle;resizable=0;points=[];autosize=1;strokeColor=none;fillColor=none;" parent="1" vertex="1">
          <mxGeometry x="830" y="350" width="30" height="30" as="geometry" />
        </mxCell>
        <mxCell id="6mkCIRbmMQfoTAYwDSCQ-75" style="edgeStyle=orthogonalEdgeStyle;rounded=0;orthogonalLoop=1;jettySize=auto;html=1;entryX=0.999;entryY=-0.1;entryDx=0;entryDy=0;entryPerimeter=0;startArrow=none;startFill=0;" parent="1" target="6mkCIRbmMQfoTAYwDSCQ-40" edge="1">
          <mxGeometry relative="1" as="geometry">
            <mxPoint x="920" y="460" as="sourcePoint" />
            <Array as="points">
              <mxPoint x="880" y="460" />
              <mxPoint x="880" y="349" />
            </Array>
          </mxGeometry>
        </mxCell>
        <mxCell id="6mkCIRbmMQfoTAYwDSCQ-78" value="2" style="text;html=1;align=center;verticalAlign=middle;resizable=0;points=[];autosize=1;strokeColor=none;fillColor=none;" parent="1" vertex="1">
          <mxGeometry x="350" y="716.5" width="30" height="30" as="geometry" />
        </mxCell>
        <mxCell id="6mkCIRbmMQfoTAYwDSCQ-80" value="1" style="text;html=1;align=center;verticalAlign=middle;resizable=0;points=[];autosize=1;strokeColor=none;fillColor=none;" parent="1" vertex="1">
          <mxGeometry x="260" y="400" width="30" height="30" as="geometry" />
        </mxCell>
        <mxCell id="XtxYPDcPfNEDLWMkmPID-11" style="edgeStyle=orthogonalEdgeStyle;rounded=0;orthogonalLoop=1;jettySize=auto;html=1;entryX=0.437;entryY=-0.003;entryDx=0;entryDy=0;entryPerimeter=0;" parent="1" source="XtxYPDcPfNEDLWMkmPID-1" target="17acba5748e5396b-20" edge="1">
          <mxGeometry relative="1" as="geometry">
            <Array as="points">
              <mxPoint x="1030" y="-110" />
              <mxPoint x="93" y="-110" />
            </Array>
          </mxGeometry>
        </mxCell>
        <mxCell id="XtxYPDcPfNEDLWMkmPID-14" style="edgeStyle=orthogonalEdgeStyle;rounded=0;orthogonalLoop=1;jettySize=auto;html=1;entryX=0.25;entryY=1;entryDx=0;entryDy=0;" parent="1" source="XtxYPDcPfNEDLWMkmPID-1" target="6mkCIRbmMQfoTAYwDSCQ-43" edge="1">
          <mxGeometry relative="1" as="geometry">
            <Array as="points">
              <mxPoint x="1210" y="195" />
              <mxPoint x="1210" y="770" />
              <mxPoint x="340" y="770" />
            </Array>
            <mxPoint x="340" y="730" as="targetPoint" />
          </mxGeometry>
        </mxCell>
        <mxCell id="XtxYPDcPfNEDLWMkmPID-18" style="edgeStyle=orthogonalEdgeStyle;rounded=0;orthogonalLoop=1;jettySize=auto;html=1;startArrow=diamondThin;startFill=0;targetPerimeterSpacing=0;sourcePerimeterSpacing=0;startSize=16;exitX=0.25;exitY=0;exitDx=0;exitDy=0;" parent="1" source="XtxYPDcPfNEDLWMkmPID-1" edge="1">
          <mxGeometry relative="1" as="geometry">
            <mxPoint x="430" y="70" as="targetPoint" />
            <Array as="points">
              <mxPoint x="950" y="-70" />
              <mxPoint x="430" y="-70" />
            </Array>
          </mxGeometry>
        </mxCell>
        <mxCell id="ETVMtuT10l9wvVC2BpGE-33" style="edgeStyle=orthogonalEdgeStyle;rounded=0;orthogonalLoop=1;jettySize=auto;html=1;entryX=0.5;entryY=0;entryDx=0;entryDy=0;startArrow=classic;startFill=1;" edge="1" parent="1" source="XtxYPDcPfNEDLWMkmPID-1" target="6mkCIRbmMQfoTAYwDSCQ-64">
          <mxGeometry relative="1" as="geometry">
            <Array as="points">
              <mxPoint x="1040" y="310" />
              <mxPoint x="1040" y="310" />
            </Array>
          </mxGeometry>
        </mxCell>
        <mxCell id="XtxYPDcPfNEDLWMkmPID-1" value="Game" style="swimlane;html=1;fontStyle=0;childLayout=stackLayout;horizontal=1;startSize=26;fillColor=none;horizontalStack=0;resizeParent=1;resizeLast=0;collapsible=1;marginBottom=0;swimlaneFillColor=#ffffff;rounded=0;shadow=0;comic=0;labelBackgroundColor=none;strokeWidth=1;fontFamily=Verdana;fontSize=10;align=center;strokeColor=default;" parent="1" vertex="1">
          <mxGeometry x="890" y="-50" width="240" height="332" as="geometry" />
        </mxCell>
        <mxCell id="XtxYPDcPfNEDLWMkmPID-2" value="- hasStarted: boolean" style="text;html=1;strokeColor=none;fillColor=none;align=left;verticalAlign=top;spacingLeft=4;spacingRight=4;whiteSpace=wrap;overflow=hidden;rotatable=0;points=[[0,0.5],[1,0.5]];portConstraint=eastwest;" parent="XtxYPDcPfNEDLWMkmPID-1" vertex="1">
          <mxGeometry y="26" width="240" height="26" as="geometry" />
        </mxCell>
        <mxCell id="XtxYPDcPfNEDLWMkmPID-3" value="- numPlayers: int" style="text;html=1;strokeColor=none;fillColor=none;align=left;verticalAlign=top;spacingLeft=4;spacingRight=4;whiteSpace=wrap;overflow=hidden;rotatable=0;points=[[0,0.5],[1,0.5]];portConstraint=eastwest;" parent="XtxYPDcPfNEDLWMkmPID-1" vertex="1">
          <mxGeometry y="52" width="240" height="26" as="geometry" />
        </mxCell>
        <mxCell id="XtxYPDcPfNEDLWMkmPID-4" value="- activePlayerIndex: int" style="text;html=1;strokeColor=none;fillColor=none;align=left;verticalAlign=top;spacingLeft=4;spacingRight=4;whiteSpace=wrap;overflow=hidden;rotatable=0;points=[[0,0.5],[1,0.5]];portConstraint=eastwest;" parent="XtxYPDcPfNEDLWMkmPID-1" vertex="1">
          <mxGeometry y="78" width="240" height="32" as="geometry" />
        </mxCell>
        <mxCell id="XtxYPDcPfNEDLWMkmPID-5" value="" style="endArrow=none;html=1;rounded=0;" parent="XtxYPDcPfNEDLWMkmPID-1" edge="1">
          <mxGeometry width="50" height="50" relative="1" as="geometry">
            <mxPoint y="108" as="sourcePoint" />
            <mxPoint x="240" y="108" as="targetPoint" />
          </mxGeometry>
        </mxCell>
        <mxCell id="XtxYPDcPfNEDLWMkmPID-7" value="+ changeTurn(): void" style="text;html=1;strokeColor=none;fillColor=none;align=left;verticalAlign=top;spacingLeft=4;spacingRight=4;whiteSpace=wrap;overflow=hidden;rotatable=0;points=[[0,0.5],[1,0.5]];portConstraint=eastwest;" parent="XtxYPDcPfNEDLWMkmPID-1" vertex="1">
          <mxGeometry y="110" width="240" height="24" as="geometry" />
        </mxCell>
        <mxCell id="XtxYPDcPfNEDLWMkmPID-17" value="+ refillBoard(): void" style="text;html=1;strokeColor=none;fillColor=none;align=left;verticalAlign=top;spacingLeft=4;spacingRight=4;whiteSpace=wrap;overflow=hidden;rotatable=0;points=[[0,0.5],[1,0.5]];portConstraint=eastwest;" parent="XtxYPDcPfNEDLWMkmPID-1" vertex="1">
          <mxGeometry y="134" width="240" height="26" as="geometry" />
        </mxCell>
        <mxCell id="ETVMtuT10l9wvVC2BpGE-23" value="+ updatePlayerScore(Player): void" style="text;html=1;strokeColor=none;fillColor=none;align=left;verticalAlign=top;spacingLeft=4;spacingRight=4;whiteSpace=wrap;overflow=hidden;rotatable=0;points=[[0,0.5],[1,0.5]];portConstraint=eastwest;" vertex="1" parent="XtxYPDcPfNEDLWMkmPID-1">
          <mxGeometry y="160" width="240" height="26" as="geometry" />
        </mxCell>
        <mxCell id="XtxYPDcPfNEDLWMkmPID-6" value="+ isPaused(): boolean" style="text;html=1;strokeColor=none;fillColor=none;align=left;verticalAlign=top;spacingLeft=4;spacingRight=4;whiteSpace=wrap;overflow=hidden;rotatable=0;points=[[0,0.5],[1,0.5]];portConstraint=eastwest;" parent="XtxYPDcPfNEDLWMkmPID-1" vertex="1">
          <mxGeometry y="186" width="240" height="26" as="geometry" />
        </mxCell>
        <mxCell id="ETVMtuT10l9wvVC2BpGE-24" value="+ connectedPlayers(Player): List&amp;lt;Player&amp;gt;" style="text;html=1;strokeColor=none;fillColor=none;align=left;verticalAlign=top;spacingLeft=4;spacingRight=4;whiteSpace=wrap;overflow=hidden;rotatable=0;points=[[0,0.5],[1,0.5]];portConstraint=eastwest;" vertex="1" parent="XtxYPDcPfNEDLWMkmPID-1">
          <mxGeometry y="212" width="240" height="26" as="geometry" />
        </mxCell>
        <mxCell id="ETVMtuT10l9wvVC2BpGE-25" value="+ getRandomCommonGoalSubclass&lt;br&gt;Istance(): CommonGoal" style="text;html=1;strokeColor=none;fillColor=none;align=left;verticalAlign=top;spacingLeft=4;spacingRight=4;whiteSpace=wrap;overflow=hidden;rotatable=0;points=[[0,0.5],[1,0.5]];portConstraint=eastwest;" vertex="1" parent="XtxYPDcPfNEDLWMkmPID-1">
          <mxGeometry y="238" width="240" height="42" as="geometry" />
        </mxCell>
        <mxCell id="ETVMtuT10l9wvVC2BpGE-26" value="+ sendMessage(Player,Player,String): void" style="text;html=1;strokeColor=none;fillColor=none;align=left;verticalAlign=top;spacingLeft=4;spacingRight=4;whiteSpace=wrap;overflow=hidden;rotatable=0;points=[[0,0.5],[1,0.5]];portConstraint=eastwest;" vertex="1" parent="XtxYPDcPfNEDLWMkmPID-1">
          <mxGeometry y="280" width="240" height="26" as="geometry" />
        </mxCell>
        <mxCell id="XtxYPDcPfNEDLWMkmPID-9" value="1..4" style="text;html=1;align=center;verticalAlign=middle;resizable=0;points=[];autosize=1;strokeColor=none;fillColor=none;" parent="1" vertex="1">
          <mxGeometry x="1000" y="350" width="40" height="30" as="geometry" />
        </mxCell>
        <mxCell id="XtxYPDcPfNEDLWMkmPID-12" value="1" style="text;html=1;align=center;verticalAlign=middle;resizable=0;points=[];autosize=1;strokeColor=none;fillColor=none;" parent="1" vertex="1">
          <mxGeometry x="60" y="30" width="30" height="30" as="geometry" />
        </mxCell>
        <mxCell id="XtxYPDcPfNEDLWMkmPID-21" value="132" style="text;html=1;align=center;verticalAlign=middle;resizable=0;points=[];autosize=1;strokeColor=none;fillColor=none;" parent="1" vertex="1">
          <mxGeometry x="385" y="30" width="40" height="30" as="geometry" />
        </mxCell>
        <mxCell id="XtxYPDcPfNEDLWMkmPID-22" value="bag" style="text;html=1;align=center;verticalAlign=middle;resizable=0;points=[];autosize=1;strokeColor=none;fillColor=none;" parent="1" vertex="1">
          <mxGeometry x="435" y="30" width="40" height="30" as="geometry" />
        </mxCell>
        <mxCell id="XtxYPDcPfNEDLWMkmPID-36" style="edgeStyle=orthogonalEdgeStyle;rounded=0;orthogonalLoop=1;jettySize=auto;html=1;endArrow=block;endFill=0;dashed=1;" parent="1" source="XtxYPDcPfNEDLWMkmPID-23" edge="1">
          <mxGeometry relative="1" as="geometry">
            <mxPoint x="320" y="720" as="targetPoint" />
            <Array as="points">
              <mxPoint x="-250" y="1020" />
              <mxPoint x="320" y="1020" />
            </Array>
          </mxGeometry>
        </mxCell>
        <mxCell id="XtxYPDcPfNEDLWMkmPID-23" value="EightShapelessPatternCommonGoal" style="swimlane;html=1;fontStyle=0;childLayout=stackLayout;horizontal=1;startSize=26;fillColor=none;horizontalStack=0;resizeParent=1;resizeLast=0;collapsible=1;marginBottom=0;swimlaneFillColor=#ffffff;rounded=0;shadow=0;comic=0;labelBackgroundColor=none;strokeWidth=1;fontFamily=Verdana;fontSize=10;align=center;strokeColor=default;" parent="1" vertex="1">
          <mxGeometry x="-360" y="1100" width="220" height="60" as="geometry" />
        </mxCell>
        <mxCell id="XtxYPDcPfNEDLWMkmPID-35" value="&lt;p style=&quot;border-color: var(--border-color); margin: 0px 0px 0px 4px;&quot;&gt;+ goalPattern(Bookshelf): int&lt;/p&gt;" style="text;html=1;strokeColor=none;fillColor=none;align=left;verticalAlign=top;spacingLeft=4;spacingRight=4;whiteSpace=wrap;overflow=hidden;rotatable=0;points=[[0,0.5],[1,0.5]];portConstraint=eastwest;" parent="XtxYPDcPfNEDLWMkmPID-23" vertex="1">
          <mxGeometry y="26" width="220" height="26" as="geometry" />
        </mxCell>
        <mxCell id="XtxYPDcPfNEDLWMkmPID-50" value="&lt;p style=&quot;margin:0px;margin-top:4px;text-align:center;&quot;&gt;&lt;i&gt;&amp;lt;&amp;lt;enumeration&amp;gt;&amp;gt;&lt;/i&gt;&lt;br&gt;&lt;b&gt;Check&lt;/b&gt;&lt;b style=&quot;background-color: initial;&quot;&gt;Type&lt;/b&gt;&lt;/p&gt;" style="verticalAlign=top;align=left;overflow=fill;fontSize=12;fontFamily=Helvetica;html=1;rounded=0;shadow=0;comic=0;labelBackgroundColor=none;strokeWidth=1" parent="1" vertex="1">
          <mxGeometry x="650" y="790" width="190" height="202" as="geometry" />
        </mxCell>
        <mxCell id="XtxYPDcPfNEDLWMkmPID-51" value="Equals" style="text;html=1;strokeColor=none;fillColor=none;align=left;verticalAlign=top;spacingLeft=4;spacingRight=4;whiteSpace=wrap;overflow=hidden;rotatable=0;points=[[0,0.5],[1,0.5]];portConstraint=eastwest;" parent="1" vertex="1">
          <mxGeometry x="650" y="820" width="190" height="26" as="geometry" />
        </mxCell>
        <mxCell id="XtxYPDcPfNEDLWMkmPID-52" value="Different" style="text;html=1;strokeColor=none;fillColor=none;align=left;verticalAlign=top;spacingLeft=4;spacingRight=4;whiteSpace=wrap;overflow=hidden;rotatable=0;points=[[0,0.5],[1,0.5]];portConstraint=eastwest;" parent="1" vertex="1">
          <mxGeometry x="650" y="846" width="190" height="26" as="geometry" />
        </mxCell>
        <mxCell id="XtxYPDcPfNEDLWMkmPID-53" value="Indifferent" style="text;html=1;strokeColor=none;fillColor=none;align=left;verticalAlign=top;spacingLeft=4;spacingRight=4;whiteSpace=wrap;overflow=hidden;rotatable=0;points=[[0,0.5],[1,0.5]];portConstraint=eastwest;" parent="1" vertex="1">
          <mxGeometry x="650" y="874" width="190" height="26" as="geometry" />
        </mxCell>
        <mxCell id="ETVMtuT10l9wvVC2BpGE-7" value="tiles" style="text;html=1;strokeColor=none;fillColor=none;align=center;verticalAlign=middle;whiteSpace=wrap;rounded=0;" vertex="1" parent="1">
          <mxGeometry x="250" y="78" width="60" height="30" as="geometry" />
        </mxCell>
        <mxCell id="ETVMtuT10l9wvVC2BpGE-12" value="tiles" style="text;html=1;strokeColor=none;fillColor=none;align=center;verticalAlign=middle;whiteSpace=wrap;rounded=0;" vertex="1" parent="1">
          <mxGeometry x="435" y="238" width="60" height="30" as="geometry" />
        </mxCell>
        <mxCell id="ETVMtuT10l9wvVC2BpGE-19" value="players" style="text;html=1;strokeColor=none;fillColor=none;align=center;verticalAlign=middle;whiteSpace=wrap;rounded=0;" vertex="1" parent="1">
          <mxGeometry x="1040" y="350" width="60" height="30" as="geometry" />
        </mxCell>
        <mxCell id="ETVMtuT10l9wvVC2BpGE-21" value="board" style="text;html=1;strokeColor=none;fillColor=none;align=center;verticalAlign=middle;whiteSpace=wrap;rounded=0;" vertex="1" parent="1">
          <mxGeometry x="100" y="30" width="60" height="30" as="geometry" />
        </mxCell>
        <mxCell id="ETVMtuT10l9wvVC2BpGE-22" value="commonGoals" style="text;html=1;strokeColor=none;fillColor=none;align=center;verticalAlign=middle;whiteSpace=wrap;rounded=0;" vertex="1" parent="1">
          <mxGeometry x="365" y="740" width="60" height="30" as="geometry" />
        </mxCell>
        <mxCell id="ETVMtuT10l9wvVC2BpGE-28" value="+ getPlayerFromNickname(String): Player" style="text;html=1;strokeColor=none;fillColor=none;align=left;verticalAlign=top;spacingLeft=4;spacingRight=4;whiteSpace=wrap;overflow=hidden;rotatable=0;points=[[0,0.5],[1,0.5]];portConstraint=eastwest;" vertex="1" parent="1">
          <mxGeometry x="890" y="256" width="240" height="24" as="geometry" />
        </mxCell>
        <mxCell id="ETVMtuT10l9wvVC2BpGE-34" value="0..1" style="text;html=1;align=center;verticalAlign=middle;resizable=0;points=[];autosize=1;strokeColor=none;fillColor=none;" vertex="1" parent="1">
          <mxGeometry x="1000" y="282" width="40" height="30" as="geometry" />
        </mxCell>
        <mxCell id="ETVMtuT10l9wvVC2BpGE-35" value="game" style="text;html=1;strokeColor=none;fillColor=none;align=center;verticalAlign=middle;whiteSpace=wrap;rounded=0;" vertex="1" parent="1">
          <mxGeometry x="1040" y="282" width="60" height="30" as="geometry" />
        </mxCell>
        <mxCell id="ETVMtuT10l9wvVC2BpGE-36" value="personalGoal" style="text;html=1;strokeColor=none;fillColor=none;align=center;verticalAlign=middle;whiteSpace=wrap;rounded=0;" vertex="1" parent="1">
          <mxGeometry x="250" y="430" width="60" height="30" as="geometry" />
        </mxCell>
        <mxCell id="ETVMtuT10l9wvVC2BpGE-37" value="goalTiles" style="text;html=1;strokeColor=none;fillColor=none;align=center;verticalAlign=middle;whiteSpace=wrap;rounded=0;" vertex="1" parent="1">
          <mxGeometry x="880" y="610" width="60" height="30" as="geometry" />
        </mxCell>
        <mxCell id="ETVMtuT10l9wvVC2BpGE-38" value="bookshelf" style="text;html=1;strokeColor=none;fillColor=none;align=center;verticalAlign=middle;whiteSpace=wrap;rounded=0;" vertex="1" parent="1">
          <mxGeometry x="830" y="320" width="60" height="30" as="geometry" />
        </mxCell>
        <mxCell id="ETVMtuT10l9wvVC2BpGE-40" value="0..1" style="text;html=1;align=center;verticalAlign=middle;resizable=0;points=[];autosize=1;strokeColor=none;fillColor=none;" vertex="1" parent="1">
          <mxGeometry x="870" y="480" width="40" height="30" as="geometry" />
        </mxCell>
        <mxCell id="ETVMtuT10l9wvVC2BpGE-41" value="player" style="text;html=1;strokeColor=none;fillColor=none;align=center;verticalAlign=middle;whiteSpace=wrap;rounded=0;" vertex="1" parent="1">
          <mxGeometry x="830" y="480" width="50" height="30" as="geometry" />
        </mxCell>
        <mxCell id="ETVMtuT10l9wvVC2BpGE-42" value="0..1" style="text;html=1;align=center;verticalAlign=middle;resizable=0;points=[];autosize=1;strokeColor=none;fillColor=none;" vertex="1" parent="1">
          <mxGeometry x="560" y="610" width="40" height="30" as="geometry" />
        </mxCell>
        <mxCell id="ETVMtuT10l9wvVC2BpGE-43" value="commonGoals" style="text;html=1;align=center;verticalAlign=middle;resizable=0;points=[];autosize=1;strokeColor=none;fillColor=none;" vertex="1" parent="1">
          <mxGeometry x="530" y="640" width="100" height="30" as="geometry" />
        </mxCell>
        <mxCell id="ETVMtuT10l9wvVC2BpGE-44" value="scoreTiles" style="text;html=1;align=center;verticalAlign=middle;resizable=0;points=[];autosize=1;strokeColor=none;fillColor=none;" vertex="1" parent="1">
          <mxGeometry x="630" y="610" width="80" height="30" as="geometry" />
        </mxCell>
        <mxCell id="ETVMtuT10l9wvVC2BpGE-47" value="&amp;lt;&amp;lt;Abstract&amp;gt;&amp;gt;&lt;br&gt;&lt;b&gt;Card&lt;/b&gt;" style="swimlane;html=1;fontStyle=0;childLayout=stackLayout;horizontal=1;startSize=26;fillColor=none;horizontalStack=0;resizeParent=1;resizeLast=0;collapsible=1;marginBottom=0;swimlaneFillColor=#ffffff;rounded=0;shadow=0;comic=0;labelBackgroundColor=none;strokeWidth=1;fontFamily=Verdana;fontSize=10;align=center;" vertex="1" parent="1">
          <mxGeometry x="20" y="576" width="200" height="110" as="geometry" />
        </mxCell>
        <mxCell id="ETVMtuT10l9wvVC2BpGE-48" value="- image: String" style="text;html=1;strokeColor=none;fillColor=none;align=left;verticalAlign=top;spacingLeft=4;spacingRight=4;whiteSpace=wrap;overflow=hidden;rotatable=0;points=[[0,0.5],[1,0.5]];portConstraint=eastwest;" vertex="1" parent="ETVMtuT10l9wvVC2BpGE-47">
          <mxGeometry y="26" width="200" height="24" as="geometry" />
        </mxCell>
        <mxCell id="ETVMtuT10l9wvVC2BpGE-49" value="- score: int" style="text;html=1;strokeColor=none;fillColor=none;align=left;verticalAlign=top;spacingLeft=4;spacingRight=4;whiteSpace=wrap;overflow=hidden;rotatable=0;points=[[0,0.5],[1,0.5]];portConstraint=eastwest;" vertex="1" parent="ETVMtuT10l9wvVC2BpGE-47">
          <mxGeometry y="50" width="200" height="26" as="geometry" />
        </mxCell>
        <mxCell id="ETVMtuT10l9wvVC2BpGE-50" value="" style="endArrow=none;html=1;rounded=0;entryX=0.998;entryY=0.005;entryDx=0;entryDy=0;entryPerimeter=0;" edge="1" parent="ETVMtuT10l9wvVC2BpGE-47">
          <mxGeometry width="50" height="50" relative="1" as="geometry">
            <mxPoint y="76" as="sourcePoint" />
            <mxPoint x="200" y="76" as="targetPoint" />
          </mxGeometry>
        </mxCell>
        <mxCell id="ETVMtuT10l9wvVC2BpGE-51" value="&lt;i&gt;+ goalPattern(Bookshelf): int&lt;/i&gt;" style="text;html=1;strokeColor=none;fillColor=none;align=left;verticalAlign=top;spacingLeft=4;spacingRight=4;whiteSpace=wrap;overflow=hidden;rotatable=0;points=[[0,0.5],[1,0.5]];portConstraint=eastwest;" vertex="1" parent="ETVMtuT10l9wvVC2BpGE-47">
          <mxGeometry y="76" width="200" height="26" as="geometry" />
        </mxCell>
        <mxCell id="ETVMtuT10l9wvVC2BpGE-57" value="0..N" style="text;html=1;strokeColor=none;fillColor=none;align=center;verticalAlign=middle;whiteSpace=wrap;rounded=0;" vertex="1" parent="1">
          <mxGeometry x="330" y="230" width="40" height="30" as="geometry" />
        </mxCell>
        <mxCell id="ETVMtuT10l9wvVC2BpGE-58" value="pattern" style="text;html=1;strokeColor=none;fillColor=none;align=center;verticalAlign=middle;whiteSpace=wrap;rounded=0;" vertex="1" parent="1">
          <mxGeometry x="370" y="230" width="60" height="30" as="geometry" />
        </mxCell>
        <mxCell id="ETVMtuT10l9wvVC2BpGE-63" value="Message" style="swimlane;html=1;fontStyle=0;childLayout=stackLayout;horizontal=1;startSize=26;fillColor=none;horizontalStack=0;resizeParent=1;resizeLast=0;collapsible=1;marginBottom=0;swimlaneFillColor=#ffffff;rounded=0;shadow=0;comic=0;labelBackgroundColor=none;strokeWidth=1;fontFamily=Verdana;fontSize=10;align=center;" vertex="1" parent="1">
          <mxGeometry x="1240" y="10" width="220" height="110" as="geometry" />
        </mxCell>
        <mxCell id="ETVMtuT10l9wvVC2BpGE-64" value="- receiverNickname: String" style="text;html=1;strokeColor=none;fillColor=none;align=left;verticalAlign=top;spacingLeft=4;spacingRight=4;whiteSpace=wrap;overflow=hidden;rotatable=0;points=[[0,0.5],[1,0.5]];portConstraint=eastwest;" vertex="1" parent="ETVMtuT10l9wvVC2BpGE-63">
          <mxGeometry y="26" width="220" height="26" as="geometry" />
        </mxCell>
        <mxCell id="ETVMtuT10l9wvVC2BpGE-65" value="- sencderNickname: String" style="text;html=1;strokeColor=none;fillColor=none;align=left;verticalAlign=top;spacingLeft=4;spacingRight=4;whiteSpace=wrap;overflow=hidden;rotatable=0;points=[[0,0.5],[1,0.5]];portConstraint=eastwest;" vertex="1" parent="ETVMtuT10l9wvVC2BpGE-63">
          <mxGeometry y="52" width="220" height="26" as="geometry" />
        </mxCell>
        <mxCell id="ETVMtuT10l9wvVC2BpGE-69" value="- content: String" style="text;html=1;strokeColor=none;fillColor=none;align=left;verticalAlign=top;spacingLeft=4;spacingRight=4;whiteSpace=wrap;overflow=hidden;rotatable=0;points=[[0,0.5],[1,0.5]];portConstraint=eastwest;" vertex="1" parent="ETVMtuT10l9wvVC2BpGE-63">
          <mxGeometry y="78" width="220" height="26" as="geometry" />
        </mxCell>
        <mxCell id="ETVMtuT10l9wvVC2BpGE-70" value="FiveDiagonalPatternGoal" style="swimlane;html=1;fontStyle=0;childLayout=stackLayout;horizontal=1;startSize=26;fillColor=none;horizontalStack=0;resizeParent=1;resizeLast=0;collapsible=1;marginBottom=0;swimlaneFillColor=#ffffff;rounded=0;shadow=0;comic=0;labelBackgroundColor=none;strokeWidth=1;fontFamily=Verdana;fontSize=10;align=center;strokeColor=default;" vertex="1" parent="1">
          <mxGeometry x="-130" y="1100" width="220" height="60" as="geometry" />
        </mxCell>
        <mxCell id="ETVMtuT10l9wvVC2BpGE-71" value="&lt;p style=&quot;border-color: var(--border-color); margin: 0px 0px 0px 4px;&quot;&gt;+ goalPattern(Bookshelf): int&lt;/p&gt;" style="text;html=1;strokeColor=none;fillColor=none;align=left;verticalAlign=top;spacingLeft=4;spacingRight=4;whiteSpace=wrap;overflow=hidden;rotatable=0;points=[[0,0.5],[1,0.5]];portConstraint=eastwest;" vertex="1" parent="ETVMtuT10l9wvVC2BpGE-70">
          <mxGeometry y="26" width="220" height="26" as="geometry" />
        </mxCell>
        <mxCell id="ETVMtuT10l9wvVC2BpGE-72" value="StairPatternGoal" style="swimlane;html=1;fontStyle=0;childLayout=stackLayout;horizontal=1;startSize=26;fillColor=none;horizontalStack=0;resizeParent=1;resizeLast=0;collapsible=1;marginBottom=0;swimlaneFillColor=#ffffff;rounded=0;shadow=0;comic=0;labelBackgroundColor=none;strokeWidth=1;fontFamily=Verdana;fontSize=10;align=center;strokeColor=default;" vertex="1" parent="1">
          <mxGeometry x="100" y="1100" width="220" height="60" as="geometry" />
        </mxCell>
        <mxCell id="ETVMtuT10l9wvVC2BpGE-73" value="&lt;p style=&quot;border-color: var(--border-color); margin: 0px 0px 0px 4px;&quot;&gt;+ goalPattern(Bookshelf): int&lt;/p&gt;" style="text;html=1;strokeColor=none;fillColor=none;align=left;verticalAlign=top;spacingLeft=4;spacingRight=4;whiteSpace=wrap;overflow=hidden;rotatable=0;points=[[0,0.5],[1,0.5]];portConstraint=eastwest;" vertex="1" parent="ETVMtuT10l9wvVC2BpGE-72">
          <mxGeometry y="26" width="220" height="26" as="geometry" />
        </mxCell>
        <mxCell id="ETVMtuT10l9wvVC2BpGE-74" value="FiveXShapePatternGoal" style="swimlane;html=1;fontStyle=0;childLayout=stackLayout;horizontal=1;startSize=26;fillColor=none;horizontalStack=0;resizeParent=1;resizeLast=0;collapsible=1;marginBottom=0;swimlaneFillColor=#ffffff;rounded=0;shadow=0;comic=0;labelBackgroundColor=none;strokeWidth=1;fontFamily=Verdana;fontSize=10;align=center;strokeColor=default;" vertex="1" parent="1">
          <mxGeometry x="330" y="1100" width="220" height="60" as="geometry" />
        </mxCell>
        <mxCell id="ETVMtuT10l9wvVC2BpGE-75" value="&lt;p style=&quot;border-color: var(--border-color); margin: 0px 0px 0px 4px;&quot;&gt;+ goalPattern(Bookshelf): int&lt;/p&gt;" style="text;html=1;strokeColor=none;fillColor=none;align=left;verticalAlign=top;spacingLeft=4;spacingRight=4;whiteSpace=wrap;overflow=hidden;rotatable=0;points=[[0,0.5],[1,0.5]];portConstraint=eastwest;" vertex="1" parent="ETVMtuT10l9wvVC2BpGE-74">
          <mxGeometry y="26" width="220" height="26" as="geometry" />
        </mxCell>
        <mxCell id="ETVMtuT10l9wvVC2BpGE-92" style="edgeStyle=orthogonalEdgeStyle;rounded=0;orthogonalLoop=1;jettySize=auto;html=1;entryX=0.5;entryY=0;entryDx=0;entryDy=0;" edge="1" parent="1" source="ETVMtuT10l9wvVC2BpGE-76" target="ETVMtuT10l9wvVC2BpGE-88">
          <mxGeometry relative="1" as="geometry" />
        </mxCell>
        <mxCell id="ETVMtuT10l9wvVC2BpGE-76" value="MinEqualsTilesPatternGoal" style="swimlane;html=1;fontStyle=0;childLayout=stackLayout;horizontal=1;startSize=26;fillColor=none;horizontalStack=0;resizeParent=1;resizeLast=0;collapsible=1;marginBottom=0;swimlaneFillColor=#ffffff;rounded=0;shadow=0;comic=0;labelBackgroundColor=none;strokeWidth=1;fontFamily=Verdana;fontSize=10;align=center;strokeColor=default;" vertex="1" parent="1">
          <mxGeometry x="560" y="1100" width="220" height="150" as="geometry" />
        </mxCell>
        <mxCell id="ETVMtuT10l9wvVC2BpGE-84" value="&lt;p style=&quot;border-color: var(--border-color); margin: 0px 0px 0px 4px;&quot;&gt;- direction: Direction&lt;/p&gt;" style="text;html=1;strokeColor=none;fillColor=none;align=left;verticalAlign=top;spacingLeft=4;spacingRight=4;whiteSpace=wrap;overflow=hidden;rotatable=0;points=[[0,0.5],[1,0.5]];portConstraint=eastwest;" vertex="1" parent="ETVMtuT10l9wvVC2BpGE-76">
          <mxGeometry y="26" width="220" height="26" as="geometry" />
        </mxCell>
        <mxCell id="ETVMtuT10l9wvVC2BpGE-85" value="&lt;p style=&quot;border-color: var(--border-color); margin: 0px 0px 0px 4px;&quot;&gt;- maxEqualsTiles: int&lt;/p&gt;" style="text;html=1;strokeColor=none;fillColor=none;align=left;verticalAlign=top;spacingLeft=4;spacingRight=4;whiteSpace=wrap;overflow=hidden;rotatable=0;points=[[0,0.5],[1,0.5]];portConstraint=eastwest;" vertex="1" parent="ETVMtuT10l9wvVC2BpGE-76">
          <mxGeometry y="52" width="220" height="26" as="geometry" />
        </mxCell>
        <mxCell id="ETVMtuT10l9wvVC2BpGE-86" value="" style="endArrow=none;html=1;rounded=0;" edge="1" parent="ETVMtuT10l9wvVC2BpGE-76">
          <mxGeometry width="50" height="50" relative="1" as="geometry">
            <mxPoint y="78" as="sourcePoint" />
            <mxPoint x="220" y="78" as="targetPoint" />
          </mxGeometry>
        </mxCell>
        <mxCell id="ETVMtuT10l9wvVC2BpGE-77" value="&lt;p style=&quot;border-color: var(--border-color); margin: 0px 0px 0px 4px;&quot;&gt;+ goalPattern(Bookshelf): int&lt;/p&gt;" style="text;html=1;strokeColor=none;fillColor=none;align=left;verticalAlign=top;spacingLeft=4;spacingRight=4;whiteSpace=wrap;overflow=hidden;rotatable=0;points=[[0,0.5],[1,0.5]];portConstraint=eastwest;" vertex="1" parent="ETVMtuT10l9wvVC2BpGE-76">
          <mxGeometry y="78" width="220" height="26" as="geometry" />
        </mxCell>
        <mxCell id="ETVMtuT10l9wvVC2BpGE-87" value="&lt;p style=&quot;border-color: var(--border-color); margin: 0px 0px 0px 4px;&quot;&gt;- confrontEqualsDifferentTiles(int, CheckType): boolean&lt;/p&gt;" style="text;html=1;strokeColor=none;fillColor=none;align=left;verticalAlign=top;spacingLeft=4;spacingRight=4;whiteSpace=wrap;overflow=hidden;rotatable=0;points=[[0,0.5],[1,0.5]];portConstraint=eastwest;" vertex="1" parent="ETVMtuT10l9wvVC2BpGE-76">
          <mxGeometry y="104" width="220" height="46" as="geometry" />
        </mxCell>
        <mxCell id="ETVMtuT10l9wvVC2BpGE-78" value="GoalPattern_1_3_4" style="swimlane;html=1;fontStyle=0;childLayout=stackLayout;horizontal=1;startSize=26;fillColor=none;horizontalStack=0;resizeParent=1;resizeLast=0;collapsible=1;marginBottom=0;swimlaneFillColor=#ffffff;rounded=0;shadow=0;comic=0;labelBackgroundColor=none;strokeWidth=1;fontFamily=Verdana;fontSize=10;align=center;strokeColor=default;" vertex="1" parent="1">
          <mxGeometry x="790" y="1100" width="220" height="100" as="geometry" />
        </mxCell>
        <mxCell id="ETVMtuT10l9wvVC2BpGE-79" value="&lt;p style=&quot;border-color: var(--border-color); margin: 0px 0px 0px 4px;&quot;&gt;+ goalPattern(Bookshelf): int&lt;/p&gt;" style="text;html=1;strokeColor=none;fillColor=none;align=left;verticalAlign=top;spacingLeft=4;spacingRight=4;whiteSpace=wrap;overflow=hidden;rotatable=0;points=[[0,0.5],[1,0.5]];portConstraint=eastwest;" vertex="1" parent="ETVMtuT10l9wvVC2BpGE-78">
          <mxGeometry y="26" width="220" height="26" as="geometry" />
        </mxCell>
        <mxCell id="ETVMtuT10l9wvVC2BpGE-93" value="&lt;p style=&quot;border-color: var(--border-color); margin: 0px 0px 0px 4px;&quot;&gt;- searchGroup(Bookshelf, int[][], int, int, int, TileColor): void&lt;/p&gt;" style="text;html=1;strokeColor=none;fillColor=none;align=left;verticalAlign=top;spacingLeft=4;spacingRight=4;whiteSpace=wrap;overflow=hidden;rotatable=0;points=[[0,0.5],[1,0.5]];portConstraint=eastwest;" vertex="1" parent="ETVMtuT10l9wvVC2BpGE-78">
          <mxGeometry y="52" width="220" height="46" as="geometry" />
        </mxCell>
        <mxCell id="ETVMtuT10l9wvVC2BpGE-80" value="FourCornersPatternGoal" style="swimlane;html=1;fontStyle=0;childLayout=stackLayout;horizontal=1;startSize=26;fillColor=none;horizontalStack=0;resizeParent=1;resizeLast=0;collapsible=1;marginBottom=0;swimlaneFillColor=#ffffff;rounded=0;shadow=0;comic=0;labelBackgroundColor=none;strokeWidth=1;fontFamily=Verdana;fontSize=10;align=center;strokeColor=default;" vertex="1" parent="1">
          <mxGeometry x="1020" y="1100" width="220" height="60" as="geometry" />
        </mxCell>
        <mxCell id="ETVMtuT10l9wvVC2BpGE-81" value="&lt;p style=&quot;border-color: var(--border-color); margin: 0px 0px 0px 4px;&quot;&gt;+ goalPattern(Bookshelf): int&lt;/p&gt;" style="text;html=1;strokeColor=none;fillColor=none;align=left;verticalAlign=top;spacingLeft=4;spacingRight=4;whiteSpace=wrap;overflow=hidden;rotatable=0;points=[[0,0.5],[1,0.5]];portConstraint=eastwest;" vertex="1" parent="ETVMtuT10l9wvVC2BpGE-80">
          <mxGeometry y="26" width="220" height="26" as="geometry" />
        </mxCell>
        <mxCell id="ETVMtuT10l9wvVC2BpGE-88" value="&lt;p style=&quot;margin:0px;margin-top:4px;text-align:center;&quot;&gt;&lt;i&gt;&amp;lt;&amp;lt;enumeration&amp;gt;&amp;gt;&lt;/i&gt;&lt;br&gt;&lt;b&gt;Direction&lt;/b&gt;&lt;/p&gt;" style="verticalAlign=top;align=left;overflow=fill;fontSize=12;fontFamily=Helvetica;html=1;rounded=0;shadow=0;comic=0;labelBackgroundColor=none;strokeWidth=1" vertex="1" parent="1">
          <mxGeometry x="575" y="1350" width="190" height="202" as="geometry" />
        </mxCell>
        <mxCell id="ETVMtuT10l9wvVC2BpGE-89" value="Horizontal" style="text;html=1;strokeColor=none;fillColor=none;align=left;verticalAlign=top;spacingLeft=4;spacingRight=4;whiteSpace=wrap;overflow=hidden;rotatable=0;points=[[0,0.5],[1,0.5]];portConstraint=eastwest;" vertex="1" parent="1">
          <mxGeometry x="580" y="1382" width="150" height="26" as="geometry" />
        </mxCell>
        <mxCell id="ETVMtuT10l9wvVC2BpGE-90" value="Vertical" style="text;html=1;strokeColor=none;fillColor=none;align=left;verticalAlign=top;spacingLeft=4;spacingRight=4;whiteSpace=wrap;overflow=hidden;rotatable=0;points=[[0,0.5],[1,0.5]];portConstraint=eastwest;" vertex="1" parent="1">
          <mxGeometry x="580" y="1407" width="170" height="26" as="geometry" />
        </mxCell>
        <mxCell id="ETVMtuT10l9wvVC2BpGE-99" value="" style="endArrow=none;dashed=1;html=1;rounded=0;exitX=0.5;exitY=0;exitDx=0;exitDy=0;" edge="1" parent="1" source="ETVMtuT10l9wvVC2BpGE-70">
          <mxGeometry width="50" height="50" relative="1" as="geometry">
            <mxPoint y="1070" as="sourcePoint" />
            <mxPoint x="-20" y="1020" as="targetPoint" />
          </mxGeometry>
        </mxCell>
        <mxCell id="ETVMtuT10l9wvVC2BpGE-100" value="" style="endArrow=none;dashed=1;html=1;rounded=0;exitX=0.5;exitY=0;exitDx=0;exitDy=0;" edge="1" parent="1">
          <mxGeometry width="50" height="50" relative="1" as="geometry">
            <mxPoint x="210" y="1100" as="sourcePoint" />
            <mxPoint x="210" y="1020" as="targetPoint" />
          </mxGeometry>
        </mxCell>
        <mxCell id="ETVMtuT10l9wvVC2BpGE-101" value="" style="endArrow=none;dashed=1;html=1;rounded=0;exitX=0.5;exitY=0;exitDx=0;exitDy=0;" edge="1" parent="1">
          <mxGeometry width="50" height="50" relative="1" as="geometry">
            <mxPoint x="439.52" y="1100" as="sourcePoint" />
            <mxPoint x="440" y="1020" as="targetPoint" />
          </mxGeometry>
        </mxCell>
        <mxCell id="ETVMtuT10l9wvVC2BpGE-102" value="" style="endArrow=none;dashed=1;html=1;rounded=0;exitX=0.5;exitY=0;exitDx=0;exitDy=0;" edge="1" parent="1">
          <mxGeometry width="50" height="50" relative="1" as="geometry">
            <mxPoint x="669.52" y="1100" as="sourcePoint" />
            <mxPoint x="670" y="1020" as="targetPoint" />
          </mxGeometry>
        </mxCell>
        <mxCell id="ETVMtuT10l9wvVC2BpGE-103" value="" style="endArrow=none;dashed=1;html=1;rounded=0;exitX=0.5;exitY=0;exitDx=0;exitDy=0;" edge="1" parent="1">
          <mxGeometry width="50" height="50" relative="1" as="geometry">
            <mxPoint x="900" y="1100" as="sourcePoint" />
            <mxPoint x="900" y="1020" as="targetPoint" />
          </mxGeometry>
        </mxCell>
        <mxCell id="ETVMtuT10l9wvVC2BpGE-105" value="" style="endArrow=none;dashed=1;html=1;rounded=0;exitX=0.5;exitY=0;exitDx=0;exitDy=0;" edge="1" parent="1" source="ETVMtuT10l9wvVC2BpGE-80">
          <mxGeometry width="50" height="50" relative="1" as="geometry">
            <mxPoint x="1100" y="1030" as="sourcePoint" />
            <mxPoint x="320" y="1020" as="targetPoint" />
            <Array as="points">
              <mxPoint x="1130" y="1020" />
            </Array>
          </mxGeometry>
        </mxCell>
      </root>
    </mxGraphModel>
  </diagram>
</mxfile>
